<svg xmlns="http://www.w3.org/2000/svg" width="1024" height="1024" viewBox="0 0 1024 1024"><path fill="#9eb034" d="M723.22 567.43c-6.885-.933-13.624-1.582-20.55-2.098-31.262-2.325-62.202-4.542-93.54-5.803a2143 2143 0 0 0-229.125 2.18c-37.943 2.436-74.568 6.5-112.346 10.396a1254 1254 0 0 0-51.908 6.597c-5.34.773-37.755 6.27-40.653 3.732.26-.734.143-.875.953-1.071 12.066-2.918 22.955-8.24 34.56-12.465a637 637 0 0 1 43.587-13.771 839 839 0 0 1 185.358-31.683c21.68-1.277 43.493-1.126 65.089-1.605 114.458-2.542 231.1 10.828 338.095 53.22 4.459 1.766 18.44 5.181 21.186 7.736-1.63 2.89-22.38-1.258-26.216-1.929-36.271-6.35-72.9-8.604-109.315-13.069-1.781-.665-3.45-1.186-5.175-.366"/><path fill="#f89304" d="M517.34 302.714c21.105-1.956 54.2 11.704 71.867 23.403 24.288 15.704 40.894 46.457 46.363 74.45 6.448 33.006-2.35 66.272-22.463 93.053-3.78 5.034-9.838 14.858-16.477 15.803-5.569.793-24.24 1.295-28.366-1.541l-.09-.775c1.742-2.144 4.15-3.314 6.32-5.162 4.944-4.011 10.101-8.117 14.702-12.495 37.786-35.956 36.051-101.37-.809-137.423-19.575-19.146-43.814-28.032-71.405-27.983-3.233.082-6.462.294-9.677.637a97.64 97.64 0 0 0-65.067 35.283c-17.536 21.59-23.562 46.702-20.573 74.068a92.9 92.9 0 0 0 30.234 59.015c7.007 6.354 14.34 11.337 21.665 17.234-9.785.5-30.334 3.205-37.053-3.467-45.53-45.215-49.264-115.88-6.589-164.59 23.556-26.884 53.937-36.45 87.419-39.51"/><path fill="#9eb034" d="M723.22 567.43c1.725-.82 3.394-.298 5.175.367-.677 2.604-.5 4.677-.273 7.374.322.968.548 1.929.736 2.93 4.224 3.666 10.693 2.86 7.039 10.94-2.737 5.563-3.241 6.948-3.184 13.253l6.903 2.544c5.348 2.24 6.519 5.926 2.385 10.295-2.112 1.448-3.32 2.142-5.6 3.323.18 4.043.737 16.19 3.662 19.009 2.466 1.05 2.717 2.144 3.99 4.663-2.142 4.188-3.839 6.485-6.132 10.352 2.032.855 4.486 1.64 5.18 3.86.837 2.666.08 6.082-1.51 8.335-9.537 13.534-12.323 8.603-18.614-1.024-1.762 1.327-3.029 2.35-4.98 3.414a197 197 0 0 1-10.113-1.297c-.3 3.565.017 7.129-2.429 9.485-9.022 3.49-10.405-8.296-13.543-10.95-2.233-1.887-6.176 1.814-5.968-6.327-6.058-1.655-10.028-12.607-16.794-12.586l.051 9.9c-9.159.291-20.237.444-29.368.19-1.03-6.07-.907-64.996.47-70.567 2.76-1.73 27.429-.96 31.197-.24.106 7.17.196 19.074-.425 25.966.284 6.383.46 12.57-.01 18.95 3.019-.783 6.081-1.248 9.155-1.772.114-.622.247-.786.041-1.296-1.944-4.822-.86-6.24-1.067-10.95-1.744-1.558-2.964-1.146-5.05-2.247-1.133-1.689-1.045-2.271-1.186-4.306l1.09-2.157c3.524-5.929 11.443-2.588 10.068-13.987.096.786.398-2.278.378-2.029-1.124-.933-1.96-2.071-2.887-3.207-4.283-6.962 5.653-7.921 7.854-11.197 8.738-12.997 8.322-3.272 17.458 3.84l.457.352c2.719-.748 3.601-.903 6.012-2.458 2.617-2.537 6.507-6.662 9.614-9.224z"/><path fill="#9eb034" d="M723.22 567.43c1.725-.82 3.394-.298 5.175.367-.677 2.604-.5 4.677-.273 7.374.322.968.548 1.929.736 2.93 4.224 3.666 10.693 2.86 7.039 10.94-2.737 5.563-3.241 6.948-3.184 13.253l6.903 2.544c5.348 2.24 6.519 5.926 2.385 10.295-4.366.243-11.013-.987-15.69-1.403-10.524-.937-25.109-2.07-35.388-.308-3.943 1.009-4.84 1.28-9.002 1.344-2.921-2.271-5.242-2.405-8.963-5.748l1.09-2.157c3.524-5.929 11.443-2.588 10.068-13.987.096.786.398-2.278.378-2.029-1.124-.933-1.96-2.071-2.887-3.207-4.283-6.962 5.653-7.921 7.854-11.197 8.738-12.997 8.322-3.272 17.458 3.84l.457.352c2.719-.748 3.601-.903 6.012-2.458 2.617-2.537 6.507-6.662 9.614-9.224z"/><path fill="#d3e47f" d="M731.918 594.308c-4.527.117-15.793 1.073-18.328-3.274.263-1.766-.092-.993 1.216-2.347 4.654-1.685 13.4 1.429 18.39 2.54l2.7-2.186c-2.736 5.563-3.24 6.948-3.183 13.253l6.903 2.544c-3.27.957-23.209 2.333-25.965-.202l.508-.816c3.814-2.007 12.633-1.103 17.13-.806z"/><path fill="#d3e47f" d="M681.607 587.638c9.088 1.813 13.971.216 21.912 1.277l.16.928 1.09-.369c-5.627 3.349-13.1.544-18.646 2.933-1.748 1.77-1.682 3.233-1.72 5.693 3.36 6.63 17.294 2.042 20.244 6.106-.159.62-.094 1.236-.767 1.405-10.787 2.72-19.444-4.192-29.832 1.25 3.524-5.929 11.443-2.588 10.068-13.987.096.786.398-2.278.378-2.029-1.124-.933-1.96-2.071-2.887-3.207"/><path fill="#fefefe" d="M723.22 567.43c1.725-.82 3.394-.298 5.175.367-.677 2.604-.5 4.677-.273 7.374l-.357.593-.19-.536c-.54-1.475-.628-2.12-1.824-3.138-2.233-.412-2.958.349-4.928 1.714a303 303 0 0 0-6.566 4.72c-.841-.294-.651-.177-.869-.35 2.617-2.536 6.507-6.661 9.614-9.223z"/><path fill="#d3e47f" d="M690.923 613.422c10.28-1.761 24.864-.63 35.389.308 4.676.416 11.323 1.646 15.69 1.403-2.113 1.448-3.322 2.142-5.601 3.323.18 4.043.737 16.19 3.662 19.009-4.278-.234-8.76 5.057-13.318 8.233l-3.35-9.279c3.768-.292 9.9.253 12.953-.837.992-1.542.692-4.779.272-6.533-1.706-7.13-2.39-13.28-11.005-11.711l-7.92.426c-2.486.127-2.84.48-4.638 2.38-.865-1.417-2.58-3.489-4.255-3.916-1.056 1.159-.681.453-.618 2.46-2.896-.09-6.6-.76-9.55-1.203-1.445-3.11-4.67-3.672-7.711-4.063"/><path fill="#fefefe" d="M669.776 630.603c-1.083-8.77.057-20.133 1.018-29.068q.254 4.548.28 9.104c.285 6.383.462 12.57-.01 18.95 3.02-.783 6.082-1.248 9.156-1.772.114-.622.247-.786.041-1.296-1.944-4.822-.86-6.24-1.067-10.95-1.744-1.558-2.964-1.146-5.05-2.247-1.133-1.689-1.045-2.271-1.186-4.306 3.721 3.343 6.042 3.477 8.963 5.748 2.26 1.881 4.204-.072 6.422 1.22.03 1.38.08 1.295-.6 2.484-2.232.62-2.913-.012-5.489.953-1.234 1.258-1.271 3.612-1.54 5.473l3.873.683c2.036.347 4.42.536 5.292 2.638l-.727.813c-5.009 1.895-13.754 1.496-19.376 1.573"/><path fill="#d3e47f" d="M669.229 634.981c4.047 1.395 10.718 2.531 15.089 3.408-4.56 1.708-7.313 2.566-11.292 5.428 3.414 2.687 12.247 9.575 12.918 14.16-6.058-1.656-10.028-12.608-16.794-12.587-1.55-2.79-.49-7.305.079-10.409"/><path fill="#f1f8be" d="M708.184 618.688c-.063-2.007-.438-1.301.618-2.46 1.675.427 3.39 2.499 4.255 3.915-.328 3.215.066 6.236.35 9.454-3.691.306-10.508 1.126-13.64-.6-1.07-1.366-.93-1.346-1.076-3.114 2.125-5.01 8.263-.263 9.493-7.195"/><path fill="#b8c956" d="m717.694 617.764 7.921-.426c.53 4.375 1.988 7.15 2.972 11.22-2.367 1.645-3.376 2.227-5.97 3.49-2.64-4.853-4.032-8.756-4.923-14.284"/><path fill="#f1f8be" d="M690.923 613.422c3.04.39 6.266.954 7.711 4.063-2.085.255-9.945.712-10.891.985.68-1.189.63-1.105.6-2.484-2.218-1.292-4.162.661-6.422-1.22 4.162-.065 5.059-.335 9.002-1.344"/><path fill="#f1f8be" d="M649.488 620.07c3.674-.092 7.225.06 10.895.185q-.176 11.823-.616 23.64c-3.397.426-7.126.506-10.573.652a352 352 0 0 1 .294-24.476"/><path fill="#f1f8be" d="M708.576 636.684c1.972-.118 4.28-.11 6.283-.157 3.677 8.192 8.475 15.611-.52 21.573-5.327 1.903-5.645.435-8.652-3.612 9.274-6.397.174-12.03 2.89-17.804"/><path fill="#f1f8be" d="M650.942 595.041c4.604-.056 6.175-.02 10.744.646.457 2.982 1.251 10.177 1.13 13.035q-.05 1.552-.124 3.104c-1.765-.14-4.975-.29-6.609-.558-1.81-.357-3.729-.625-5.56-.916-.056-5.4.136-9.943.419-15.31"/><path fill="#b8c956" d="M661.686 595.687c.457 2.982 1.251 10.177 1.13 13.035q-.05 1.552-.124 3.104c-1.765-.14-4.975-.29-6.609-.558 1.173-.149 1.37-.205 2.5-.568 2.728-4.038 2.76-10.182 3.103-15.013"/><path fill="#b8c956" d="M698.148 639.348c.845.018 3.027.024 3.62.493 2.887 2.287 5.135 5.518 6.26 8.892l-.537 1.05c-3.966-.632-6.917-1.244-10.824-2.19.174-3.097.22-5.398 1.48-8.245"/><path fill="#d3e47f" d="m691.578 641.008.438.304c.704 1.49.106 4.918-.071 6.756-3.172-.232-6.177-.826-9.306-1.38-.542-.04-1.197-.264-1.748-.413l-.157-.673c1.248-1.102 8.249-3.229 10.844-4.594"/><path fill="#9eb034" d="M543.527 612.865c-.139-8.506-4.288-28.776-1.56-36.86 4.209-2.976 39.925-.488 46.864-1.412 4.584-.61 16.176 1.034 21.188 1.752.186 11.281-1.297 20.117-1.754 31.028.204 1.108.106 1.997.846 2.424 1.802 1.048 4.45 1.997 6.434 2.674 7.146 2.177 8.994 7.1 1.15 10.878-.6.29-4.047.039-4.926-.016l-6.52.535a677 677 0 0 0 .015 9.366c2.954.608 5.842 1.296 8.849 1.494 3.823.467 8.775 1.032 8.979 5.985-1.04 3.186-2.943 3.482-5.927 4.075-1.987.451-5.712.747-7.103 1.942-1.165 1.92-.704 2.9-1.27 4.914l-.274.675c-.76 1.907-1.183 2.505-1.06 4.455 2.486 4.13 18.011 7.074 17.348 14.324-6.858 10.736-31.87-7.466-40.262-11.238l-.421-.361c-1.846 1.475-1.942 1.524-3.049 3.562-1.628 3.931-10.909 7.476-14.787 8.806-11.698 4.01-10.917-4.043-11.18-12.716-.13-4.286-.013-9.706.787-13.914a455 455 0 0 1-12.549-1.198c-1.938 1.967-2.691 7.887-3.602 11.122-1.187 4.62-3.911 18.982-10.966 18.723-1.447-.053-1.855-.304-2.893-1.262-2.332-5.328 4.12-24.74 4.7-32.228.577-7.439.343-18.94 1.995-25.687 4.516-1.74 6.225-1.693 10.948-1.842"/><path fill="#9eb034" d="M614.113 634.728c3.823.467 8.775 1.032 8.979 5.985-1.04 3.186-2.943 3.482-5.927 4.075-1.987.451-5.712.747-7.103 1.942-1.165 1.92-.704 2.9-1.27 4.914l-.274.675c-.76 1.907-1.183 2.505-1.06 4.455 2.486 4.13 18.011 7.074 17.348 14.324-6.858 10.736-31.87-7.466-40.262-11.238l-.421-.361c-1.846 1.475-1.942 1.524-3.049 3.562-1.628 3.931-10.909 7.476-14.787 8.806-11.698 4.01-10.917-4.043-11.18-12.716-.13-4.286-.013-9.706.787-13.914a455 455 0 0 1-12.549-1.198c1.438-.218 3.12-.19 4.602-.222-2.14-1.158-6.519-3.659-4.535-6.336 2.764-1.336 9.728-1.805 12.945-2.033 16.458.82 31.926 3.202 48.438.07 3.307-.625 6.154-.24 9.318-.79"/><path fill="#9eb034" d="M584.123 659.499c-1.368-2.443-8.122-4.771-9.303-8.467-1.083-1.475 1.66-4.641 3.147-4.647 3.678-.014 10.799 4.38 13.88 6.087 4.468-2.397 10.688-7.643 15.541-5.456 1.444 1.84 1.02 1.915 1.405 4.628l-.275.675c-.76 1.907-1.183 2.505-1.06 4.455 2.486 4.13 18.011 7.074 17.348 14.324-6.858 10.736-31.87-7.466-40.262-11.238z"/><path fill="#f1f8be" d="M565.47 659.198c-.133-4.42-.994-12.545 1.502-15.997 6.218-2.652 32.936.694 41.007 1.05 1.803.078 7.552.258 9.186.537-1.987.451-5.712.747-7.103 1.942-1.165 1.92-.704 2.9-1.27 4.914-.384-2.713.04-2.788-1.404-4.628-4.853-2.187-11.073 3.059-15.54 5.456-3.082-1.707-10.203-6.101-13.881-6.087-1.487.006-4.23 3.172-3.147 4.647 1.181 3.696 7.935 6.024 9.303 8.467-1.846 1.475-1.942 1.524-3.049 3.562.187-1.475.416-1.695-.274-2.93-4.228-2.78-10.18-1.427-15.33-.933"/><path fill="#d3e47f" d="M549.393 622.968c8.227-.8 56.426-1.346 62.376.365l-6.52.535a677 677 0 0 0 .015 9.366c2.954.608 5.842 1.296 8.849 1.494-3.164.55-6.01.165-9.318.79-16.512 3.132-31.98.75-48.438-.07 2.31-.765 1.41-.123 2.933-1.804l-.489-3.21c-.294-1.555-.36-5.528-.44-7.291q-4.487.077-8.968-.175"/><path fill="#9eb034" d="M558.801 630.434c.363-2.142-.033-2.099 1.23-3.074 7.737-.121 15.305.14 23.02-.28 6.888-.377 14.57-1.874 21.312-2.117l-.13 6.352c-4.601-.373-12.868.516-17.749.893a466 466 0 0 1-27.194 1.436z"/><path fill="#f1f8be" d="M542.494 623.343c2.12-.275 4.725-.297 6.899-.375q4.48.252 8.969.175c.078 1.763.145 5.736.44 7.291l.488 3.21c-1.523 1.68-.622 1.04-2.933 1.804-3.217.228-10.181.697-12.945 2.033-1.984 2.677 2.395 5.178 4.535 6.336-1.483.031-3.164.004-4.602.222-1.938 1.967-2.691 7.887-3.602 11.122-.066-.302 2.527-30.445 2.75-31.818"/><path fill="#d3e47f" d="M606.582 611.188c.273-2.466.5-4.196 1-6.62l.3.03.383 2.775c.204 1.108.106 1.997.846 2.424 1.802 1.048 4.45 1.997 6.434 2.674-7.447.902-24.73 1.49-32.276 1.24 8.34-3.796 14.348-3.87 23.313-2.523"/><path fill="#f1f8be" d="M563.166 598.272c5.522-.159 32.015-1.122 35.144 1.436l.043.956c-1.852 1.826-7.221 1.583-10.227 1.761-5.783.224-32.01 1.76-35.237-1.418l.031-.961c2.268-2.262 6.617-1.668 10.246-1.774"/><path fill="#d3e47f" d="M567.176 583.75c10.714-.082 23.946-.44 34.355 1.84-6.543 2.301-10.352 1.999-17.17 2.23-4.844.136-29.601.667-32.222-1.514v-.918c1.664-1.552 12.157-1.534 15.037-1.638"/><path fill="#9eb034" d="M340.5 580.246a712 712 0 0 1 40.684.44c.645 5.832-.54 24.542-.922 31.489-1.018 18.548.388 34.979-3.486 53.13-6.068.616-15.68.45-21.914.49-12.243-.16-27.291-.25-39.352-2.026-.066-8.539-.649-17.808-.875-26.489q-.711-28.002-.708-56.018c7.168-.849 19.076-.827 26.573-1.016m-15.993 38.404c4.06-.14 9.337.002 13.392.35 10.446.896 21.832-.358 32.12.508-.219-8.46.262-18.9.615-27.456-8.904.321-18.677-.09-27.705-.026-3.821.028-15.664.157-18.709-.359-.516 6.864.583 19.078.287 26.983m-.36 9.373c.499 4.124.277 24.904 1.146 26.442l.59.027q12.976.074 25.95-.013c4.945-.044 12.349-.332 17.063.039-.73-6.725-.428-19.525-.03-26.444l-.36-.247c-12.118.483-32.343.818-44.358.196"/><path fill="#f89304" d="M383.187 329.784c14.4-1.056 24.513-.667 36.107 8.713-1.839 3.996-5.468 8.999-7.994 12.748-7.894 11.383-13.699 25.097-16.985 38.51-4.888 19.964-.341 27.153-22.084 14.296-11.678-8.63-21.177-19.515-29.575-31.289-6.309-8.847-13.027-17.376-12.7-28.615 10.672-11.327 37.94-13.645 53.23-14.363"/><path fill="#f89304" d="M641.653 329.209a148 148 0 0 1 5.964-.232c11.982-.196 48.616 3.512 56.304 11.2 11.88 11.88-24.835 50.733-33.088 58.546-4.76 4.151-14.824 12.751-21.45 11.525-3.183-1.928-4.76-13.253-5.615-17.298-3.011-14.218-7.63-27.6-15.682-39.793-2.676-4.047-7.95-10.328-9.59-14.367.525-7.53 17.68-9.177 23.157-9.581"/><path fill="#f89304" d="M648.452 432.337c25.447 3.352 49.07 38.25 58.164 60.59 5.213 12.808-21.998 16.096-29.73 17.234-10.386 2.093-52.137 5.069-57.308-4.985-.545-5.104 7.364-14.41 10.187-19.375 5.895-10.372 9.297-17.028 12.218-28.606 1.316-5.216 4.137-20.93 6.47-24.858"/><path fill="#f89304" d="M440.943 233.467c16.146.39 47.602 28.128 58.097 40.71 2.925 3.504 12.327 16.04 3.95 18.537-11 3.278-21.42 4.927-32.245 9.259-9.922 3.335-20.047 10.283-28.404 16.59-8.607 6.872-11.2 1.632-13.906-7.072-5.089-16.376-2.307-67.323 12.508-78.024"/><path fill="#f89304" d="M591.748 233.635c2.9.106 7.14 1.391 8.445 4.26 7.093 15.848 8.973 33.418 9.47 50.766.228 7.886.874 26.157-6.665 31.57-1.354.97-4.98-1.34-6.428-2.302-9.122-6.046-18.205-11.156-28.24-15.509-6.102-2.285-12.575-4.16-18.912-5.68-5.953-1.427-12.496-2.175-18.133-4.495-11.733-14.538 45.8-56.93 60.463-58.61"/><path fill="#f89304" d="M387.151 433.047c4.489 1.75 5.728 11.633 6.497 15.937 2.464 13.794 6.676 25.843 14.09 37.739 3.493 5.608 8.486 12.513 10.73 18.667-5.481 8.218-26.824 6.69-35.291 6.67-5.971-.016-13.21-.01-19.154-.622-9.143-1.087-18.958-2.61-27.43-6.403-10.252-3.955-3.743-19.525.892-25.843 12.992-17.71 26.913-40.929 49.666-46.145"/><path fill="#9eb034" d="M457.39 576.647c3.378-.087 4.859-.4 7.427 1.636 1.826 3.688 2.061 23.195 1.343 27.565 7.77-.066 16.46-.315 24.15.018.162-6.024-2.657-23.905 5.15-25.104 7.549 1.746 6.839 29.123 6.842 35.976-9.812.837-26.374.527-36.454.302.377 5.296.424 40.05-.455 44.24 8.79-.722 21.043-.247 30-.04-.194-5.773-1.747-23.342 1.91-24.938 14.472-6.327 9.137 32.126 8.762 35.024-9.116 1.508-28.84 1.108-38.61 1.05-7.133-.268-43.908-.544-48.362-1.96-2.161-4.23-2.595-33.46-.202-36.933 9.552-4.426 9.917 7.215 9.54 13.18-.298 4.728.269 10.042-.722 14.684q13.609-.533 27.223-.177.115-21.986.486-43.967c-8.339.788-24.384.025-32.976-.232-.806-5.722-1.78-28.892.512-35.165.528-.7 2.772-1.646 3.517-1.658 8.208-.123 6.001 20.221 5.817 25.661 7.552-.12 15.109-.302 22.66-.08-.1-7.23-.258-14.607-.044-21.828.092-3.15.196-5.171 2.486-7.254"/><path fill="#f89304" d="M382.632 274.725c8.403.314 19.032 2.173 27.504 3.53-.092 7.145.552 31.872 2.027 37.93-3.155-.412-6.588-.69-9.775-1.008-6.074-.679-20-.302-24.718-1.84-2.775-2.507-4.549-12.384-4.876-16.125-.836-9.558-2.607-21.163 9.838-22.487"/><path fill="#f89304" d="M646.353 275.202c7.578-.64 11.233-1.374 17.136 4.064q.168.503.321 1.008c1.988 6.62.153 26.391-2.752 31.8-1.916 1.869-12.888 1.282-16.372 1.298q-9.692.391-19.356 1.22c.522-12.097 1.336-24.068 1.809-36.356 6.434-1.114 12.727-2.252 19.214-3.034"/><path fill="#f89304" d="M339.896 398.32c4.553 2.006 12.928 11.008 17.01 14.48 2.627 2.237 9.487 6.346 10.691 8.679-.504 1.95-21.56 19.888-24.482 22.11-6.289 3.074-23.783-13.422-26.769-18.49-1.789-3.04-.851-7.328 1.289-9.733 4.953-5.567 15.868-13.867 22.261-17.047"/><path fill="#f89304" d="M518.392 217.593c7.816 1.867 21.467 18.99 22.187 26.127.206 2.04-19.026 23.592-21.683 25.906-4.91-3.511-19.799-18.936-22.277-24.056-3.134-6.475 15.076-25.657 21.773-27.977"/><path fill="#f89304" d="M695.042 398.894c6.768.078 17.634 10.254 21.734 15.21 1.187 6.045.816 10.56-.073 16.556-3.595 3.933-12.305 10.051-17.24 12.513-2.402 1.197-3.032 1.081-5.254.27-5.758-5.555-11.423-11.175-17.805-16.018-2.3-1.748-4.474-3.633-6.608-5.581 1.231-2.423 22.341-20.851 25.246-22.95"/><path fill="#9eb034" d="M653.078 703.064c2.41.186 5.098.174 7.245 1.128 1.663 1.971-9.026 38.337-12.777 42.047-1.458 1.441-8.112 1.206-9.702-1.222-2.768-.43-3.157.09-5.933 1.37-4.362.976-9.169.628-8.649-5.215 1.052-11.796 5.972-25.957 12.577-35.795 1.375-2.048 7.305-1.954 9.524-1.984z"/><path fill="#f1f8be" d="m645.363 703.393 7.715-.33.514.658c-4.928 2.91-4.445 15.093-10.458 16.76l-1.061-.31c-1.252-3.846 3.013-11.228 3.29-16.778"/><path fill="#f1f8be" d="M631.911 746.388c1.407-8.241 5.783-14.817 12.534-19.476-2.29 5.78-5.252 12.127-6.601 18.105-2.768-.43-3.157.09-5.933 1.37"/><path fill="#9eb034" d="M448.591 703.717c4.36-.108 18.978-1.097 21.763.906 1.291 3.32-9.196 33.618-10.83 38.928-1.054 3.42-7.876 3.107-10.768 2.59-2.054-.375-3.729-.087-5.804.102-3.194.38-7.318.26-10.607.215 1.287-10.52 6.577-37.06 16.246-42.74"/><path fill="#d3e47f" d="M442.952 746.243c1.6-7.698 3.217-13.097 9.017-18.797-.53 5.663-3.74 15.526-3.213 18.695-2.054-.375-3.729-.087-5.804.102"/><path fill="#f1f8be" d="m455.308 704.011 6.63-.082c-1.486 5.161-2.757 10.222-5.425 14.891-1.238 1.407-1.59 1.838-3.155 1.993l-.706-.837c-.76-4.293 2.174-11.08 2.656-15.965"/><path fill="#9eb034" d="M328.271 704.727c2.044-1.206 7.174-1.789 9.026.098 1.126 5.226-7.115 34.885-9.654 40.11-4.15.511-8.34.633-12.515.364-13.261-.889-14.218-5.006-12.85-17.143.836-7.41 4.907-25.43 14.943-23.982 8.374 5.936-2.695 10.656-.765 16.527 3.023-2.281 3.629-13.337 11.815-15.974"/><path fill="#f1f8be" d="M317.221 704.174c8.374 5.936-2.695 10.656-.765 16.527 3.023-2.281 3.629-13.337 11.815-15.974-.384.964-1.744 2.588-2.434 3.99-4.24 8.602-6.072 13.571-12.708 20.57.294-8.248 2.933-14.598 4.714-22.535.145-.651-.398-1.991-.622-2.578"/><path fill="#9eb034" d="M533.972 710.263c1.38-3.51 7.143-5.402 10.746-5.13 3.492 3.32-.82 14.762-2.319 18.711-2.375 6.266-9.388 28.886-18.967 17.332 1.016-1.813 0-6.886-.298-9.293-.989 2.083-5.595 10.734-5.982 11.913-1.806 1.585-3.405 2.297-5.751 1.895-5.289-4.63 1.812-23.944 4.145-29.239 2.256-5.12 5.553-11.37 11.968-8.539 1.785.595 2.166 1.393 3.343 2.874 1.597.451 1.177.259 3.115-.524"/><path fill="#fefefe" d="M528.456 719.82c-.194-3.676-.983-7.39-1.654-11.018l.712-.889c1.785.595 2.166 1.393 3.343 2.874 1.597.451 1.177.259 3.115-.524l.153.383z"/><path fill="#9eb034" d="M381.664 704.606c1.073.396 1.17.512 2.17 1.098 3.482 6.138-7.217 32.433-12.586 37.47-4.661 4.371-8.206-3.381-10.06-5.131-4.602 2.548-3.507 6.734-10.758 8.427-5.36-3.274-.453-18.304 1.042-23.164 2.933-9.53 11.898-25.603 17.647-6.812 3.722-5.49 5.99-10.625 12.545-11.888"/><path fill="#9eb034" d="M730.955 703.652c5.03.293 9.999.785 10.13 7.335.185 9.169-5.37 14.715-11.168 20.92 2.278 3.356 5.217 6.742 3.131 10.88-5.132 4.58-11.336-3.677-13.734-4.38l-.29.803c-.963 2.099-2.893 6.448-5.012 6.872-13.38 2.683-5.889-16.702-4.082-20.875 4.918-11.36 8.386-19.248 21.025-21.555"/><path fill="#9eb034" d="M577.93 738.017c.27 5.079-2.196 7.056-6.729 8.437-3.727.99-15.811 2.904-15.874-3.13-.153-14.615 4.55-39.897 23.222-40.37 5.493-.14 7.833 1.687 7.369 7.192l-2.3 4.96a367 367 0 0 1-4.74 2.737c.303 1.97.648 4.004.901 5.975l-.894 1.244a395 395 0 0 1-4.396 6.117c1.797 2.844 2.362 3.621 3.44 6.838"/><path fill="#fefefe" d="M571.905 717.527c5.052-2.78 9.193-3.71 14.013-7.381l-2.3 4.96a367 367 0 0 1-4.74 2.737c.303 1.97.648 4.004.901 5.975-3.382-2.079-5.023-3.562-7.874-6.29"/><path fill="#fefefe" d="M567.37 733.239c2.109-2.13 8.647-7.79 11.515-8.177a395 395 0 0 1-4.396 6.117c1.797 2.844 2.362 3.621 3.44 6.838-3.583-2.944-6.167-3.462-10.56-4.778"/><path fill="#9eb034" d="M281.916 703.686c6.003.137 16.059 2.367 8.292 9.023-12.197 10.454-7.754 4.975-3.929 17.734l.218.742c-2.752 11.06-8.669 14.699-19.54 15.47-3.19-.803-8.196-2.302-8.854-5.813-1.314-6.997 8.571-8.828 12.63-9.502-2.611-3.626-4.718-5.78-5.656-10.333-2.41-11.719 7.363-15.752 16.84-17.321"/><path fill="#9eb034" d="M688.373 703.65c3.448-.51 8.415-.567 10.395 2.66.286 5.776-5.823 8.106-10.201 9.991 7.113 8.514-.39 10.754-6.277 17.05 7.05 1.63 11.742 4.35 5.526 11.634-6.454 3.223-12.722 2.301-19.749 1.546l-.108-1.522c-.857-11.113 2.43-25.345 8.14-35.083 2.7-4.606 7.487-5.37 12.274-6.276"/><path fill="#9eb034" d="M394.15 744.302c-1.659-2.699-2.608-3.556-1.467-6.826 2.019-5.777 11.374-2.921 12.655-5.69-.537-2.082-4.12-4.739-5.085-6.806-6.302-12.843 10.219-24.366 21.64-20.73 7.113 2.264 5.934 9.052-1.38 10.949-2.306.11-6.38 1.932-8.744 2.852a891 891 0 0 1 7.18 7.988l.631-.072c4.326 8.866-4.284 20.833-14.042 20.301-5.212-.282-6.313-.518-11.387-1.966"/><path fill="#9eb034" d="M771.35 703.644c3.023-.215 8.677-.145 10.748 2.353 1.305 5.728-9.72 10.102-13.743 11.797 9.461 7.965 3.76 9.395-3.508 15.778 6.378 1.526 12.16 3.704 6.71 11.213-3.255 1.762-16.44 3.143-18.33 1.42-6.386-5.818 1.555-27.77 4.952-33.872 3.227-5.799 8.187-7.382 13.171-8.689"/><path fill="#9eb034" d="M496.247 704.102c1.15-.171 2.662-.475 3.739.04.463.222.482.328.626.846 1.163 4.218-9.199 34.56-12.028 38.722-1.257 1.848-3.768 2.213-5.794 2.503-.836-.06-2.925-.204-3.604-.457-5.212-1.952.253-16.404 1.534-19.648 3.604-9.116 6.156-17.679 15.527-22.006"/><path fill="#030203" fill-opacity=".827" d="M636.217 459.336c1.59 5.486-10.952 26.375-15.036 30.673.198-2.576 5.034-7.93 6.52-10.778 3.014-5.781 5.378-14.487 8.516-19.895"/><path fill="#fefefe" fill-opacity=".976" d="M411.769 718.051c2.363-.92 6.438-2.742 8.745-2.852-4.542 4.035-1.768 5.496-.934 10.768l-.632.072a891 891 0 0 0-7.18-7.988"/><path fill="#fefefe" fill-opacity=".988" d="M517.152 743.796c.387-1.179 4.993-9.83 5.982-11.913.298 2.407 1.314 7.48.298 9.293-2.717-.724-4.082.957-6.28 2.62"/><path fill="#030203" fill-opacity=".412" d="M488.102 301.708c4.147-1.093 10.893-3.625 14.693-2.562l-.073.62c-3.45 1.198-8.531 1.52-11.062 2.8-1.612-.254-2.012-.256-3.558-.858"/><path fill="#030203" fill-opacity=".196" d="M491.66 302.565c-3.311.683-5.316 1.522-8.557 1.23l.248-.904.153.918.268-1.081c.924-.314 3.272-.783 4.33-1.02 1.546.602 1.946.604 3.558.857"/><path fill="#030203" fill-opacity=".043" d="M415.043 488.808c3.113 1.489 4.508 4.947 5.95 7.994-2.28-1.318-4.799-5.636-5.95-7.994"/></svg>